<svg width="180" height="180" viewBox="0 0 180 180" fill="none" xmlns="http://www.w3.org/2000/svg">
<rect width="180" height="180" fill="url(#paint0_linear_11844_246)"/>
<path d="M147.241 32L48.2852 32L32.7578 47.7383V148H131.713L147.241 132.262V32ZM139.582 130.804L130.265 140.238H49.733C44.5922 140.238 40.4166 136.014 40.4166 130.804V49.1963L49.733 39.7619H130.265C135.406 39.7619 139.582 43.986 139.582 49.1963V130.804Z" fill="#1859D6"/>
<path d="M132.866 90.1005C121.032 63.0839 91.2363 46.3379 91.2363 46.3379H122.962C128.439 46.3379 132.866 50.8407 132.866 56.3726C132.866 56.3726 132.95 90.2721 132.866 90.1005Z" fill="#1859D6"/>
<path d="M126.611 133.618H126.527H112.007C109.048 68.0918 47.002 66.5694 47.002 66.5694V51.3672C47.002 51.3672 123.359 54.1332 126.611 133.639V133.618Z" fill="#1859D6"/>
<path d="M99.8159 133.617H92.7447H84.3935C82.6939 95.6009 47.002 94.7218 47.002 94.7218V79.5625C47.002 79.5625 95.5354 78.6405 99.8159 133.617Z" fill="#1859D6"/>
<path d="M74.1982 133.48H74.0513H56.8663C51.3478 133.48 46.8574 128.934 46.8574 123.338V105.263C46.8574 105.263 72.3517 105.52 74.1772 133.48H74.1982Z" fill="#1859D6"/>
<defs>
<linearGradient id="paint0_linear_11844_246" x1="22" y1="-5.61476e-06" x2="180" y2="192" gradientUnits="userSpaceOnUse">
<stop stop-color="#F9FCFF"/>
<stop offset="1" stop-color="#8498A7"/>
</linearGradient>
</defs>
</svg>
