<svg width="32" height="32" viewBox="0 0 32 32" fill="none" xmlns="http://www.w3.org/2000/svg">
<path d="M31.7904 1.69542e-06L4.49239 0L0.208984 4.34159V32H27.507L31.7904 27.6584V1.69542e-06ZM29.6777 27.2562L27.1076 29.8588H4.89179C3.47364 29.8588 2.32175 28.6935 2.32175 27.2562V4.74381L4.89179 2.14122H27.1076C28.5258 2.14122 29.6777 3.30647 29.6777 4.74381V27.2562Z" fill="#1859D6"/>
<path d="M27.826 16.0275C24.5613 8.57467 16.3418 3.95508 16.3418 3.95508H25.0938C26.6046 3.95508 27.826 5.19722 27.826 6.72328C27.826 6.72328 27.8491 16.0749 27.826 16.0275Z" fill="#1859D6"/>
<path d="M26.0998 28.0326H26.0767H22.0711C21.2549 9.95645 4.13867 9.53649 4.13867 9.53649V5.34277C4.13867 5.34277 25.2026 6.1058 26.0998 28.0385V28.0326Z" fill="#1859D6"/>
<path d="M18.708 28.032H16.7574H14.4536C13.9847 17.5448 4.13867 17.3023 4.13867 17.3023V13.1204C4.13867 13.1204 17.5272 12.866 18.708 28.032Z" fill="#1859D6"/>
<path d="M11.6419 27.9941H11.6014H6.86067C5.33832 27.9941 4.09961 26.7401 4.09961 25.1963V20.21C4.09961 20.21 11.1325 20.2809 11.6361 27.9941H11.6419Z" fill="#1859D6"/>
</svg>
